<?xml version="1.0" encoding="utf-8"?>
<!-- Generator: Adobe Illustrator 23.0.1, SVG Export Plug-In . SVG Version: 6.00 Build 0)  -->
<svg version="1.1" id="Layer_1" xmlns="http://www.w3.org/2000/svg" xmlns:xlink="http://www.w3.org/1999/xlink" x="0px" y="0px"
	 viewBox="0 0 64 64" style="enable-background:new 0 0 64 64;" xml:space="preserve">
<style type="text/css">
	.st0{fill:#FFFFFF;}
</style>
<path class="st0" d="M4,62h6c1.1,0,2-0.9,2-2v-2h22.6c5,0,9.9-1.4,14.2-4.1c6.4-4,10.9-10.6,12.2-18.1l0.4-2.5
	c0.2-1.1-0.1-2.2-0.8-3.1S58.8,29,57.7,29c-0.6,0-1.2,0.2-1.7,0.4V25h1c0.4,0,0.8-0.2,0.9-0.6c0.2-0.4,0.1-0.8-0.2-1.1l-8-8
	c-0.4-0.4-1-0.4-1.4,0L46,17.6V4c0-0.6-0.4-1-1-1H35c-0.6,0-1,0.4-1,1v11h-4.1c-0.8-1.7-1.3-2.7-1.8-3.2l2.5-6.2
	c0.3-0.7,0.1-1.4-0.4-1.9c-0.5-0.5-1.3-0.6-2-0.3l-1.9,0.9l-1.2-1.6c-0.3-0.4-0.8-0.7-1.3-0.7c-0.5,0-1,0.1-1.4,0.5l-1.5,1.5l-1-1.3
	c-0.3-0.4-0.8-0.7-1.3-0.7c-0.5,0-1,0.1-1.4,0.5l-1.9,1.9l-2.9-0.8c-0.7-0.2-1.4,0-1.8,0.6c-0.4,0.5-0.5,1.3-0.2,1.9l3,5.6
	C11.6,13.6,9,19,9,23.9V27c0,3.3,2.7,6,6,6h11h9h8h10.4l-2.1,4.2l-5.5,2.4C45.2,37.5,43.3,36,41,36H26.6c-5.2,0-10.2,1.4-14.6,4.1
	V38c0-1.1-0.9-2-2-2H4c-1.1,0-2,0.9-2,2v22C2,61.1,2.9,62,4,62z M15.2,6.4c0.6,0.2,1.3,0,1.7-0.4l1.8-1.8l1,1.3
	C20,5.9,20.5,6.2,21,6.2c0.5,0,1-0.1,1.3-0.5l1.5-1.5L25,5.7c0.5,0.7,1.4,0.9,2.2,0.5l1.5-0.7L26.3,11h-2.7l1.3-2.6l-1.8-0.9
	L21.4,11h-1.8l-1.4-2.9L16.4,9l1,2h-1.8l-2.8-5.3L15.2,6.4z M25,16v15H15c-2.2,0-4-1.8-4-4v-3.1c0-5.4,3.3-10.3,4.3-10.9h11.3
	c0.2,0.2,0.5,0.7,1.1,2H26C25.4,15,25,15.4,25,16z M27,17h7v14h-7V17z M49,17.4l5.6,5.6H43.4L49,17.4z M36,5h8v14.6l-3.7,3.7
	c-0.3,0.3-0.4,0.7-0.2,1.1c0.2,0.4,0.5,0.6,0.9,0.6h1v6h-6V5z M44,25h10v6h-2v-4c0-0.6-0.4-1-1-1h-4c-0.6,0-1,0.4-1,1v4h-2V25z
	 M50,31h-2v-3h2V31z M26.6,38H41c1.7,0,3,1.3,3,3s-1.3,3-3,3H25v2h16c2.5,0,4.6-1.9,4.9-4.3l6.5-2.8c0.2-0.1,0.4-0.3,0.5-0.5
	l3.2-6.5c0.3-0.6,0.9-1,1.6-1c0.5,0,1,0.2,1.4,0.6s0.5,0.9,0.4,1.4L59,35.5c-1.2,6.9-5.3,13-11.3,16.7c-3.9,2.5-8.5,3.8-13.1,3.8H12
	V42.5C16.3,39.6,21.4,38,26.6,38z M4,38h6l0,22H4L4,38z"/>
<path class="st0" d="M6,41h2v3H6V41z"/>
<path class="st0" d="M38,7h1v2h-1V7z"/>
<path class="st0" d="M41,7h1v2h-1V7z"/>
<path class="st0" d="M38,11h1v2h-1V11z"/>
<path class="st0" d="M41,11h1v2h-1V11z"/>
<path class="st0" d="M38,15h1v2h-1V15z"/>
<path class="st0" d="M41,15h1v2h-1V15z"/>
<path class="st0" d="M29,19h1v2h-1V19z"/>
<path class="st0" d="M32,19h1v2h-1V19z"/>
<path class="st0" d="M29,23h1v2h-1V23z"/>
<path class="st0" d="M32,23h1v2h-1V23z"/>
<path class="st0" d="M29,27h1v2h-1V27z"/>
<path class="st0" d="M32,27h1v2h-1V27z"/>
<path class="st0" d="M38,19h1v2h-1V19z"/>
<path class="st0" d="M41,19h1v2h-1V19z"/>
<path class="st0" d="M22,18h-1v-1h-2v1h-1c-0.6,0-1,0.4-1,1v3c0,0.6,0.4,1,1,1h3v1h-4v1c0,0.6,0.4,1,1,1h1v1h2v-1h1c0.6,0,1-0.4,1-1
	v-3c0-0.6-0.4-1-1-1h-3v-1h4v-1C23,18.4,22.6,18,22,18z"/>
<path class="st0" d="M53,4h2v2h-2V4z"/>
<path class="st0" d="M55,2h2v2h-2V2z"/>
<path class="st0" d="M57,4h2v2h-2V4z"/>
<path class="st0" d="M55,6h2v2h-2V6z"/>
<path class="st0" d="M60,9h2v2h-2V9z"/>
<path class="st0" d="M53,12h2v2h-2V12z"/>
<path class="st0" d="M2,11h2v2H2V11z"/>
<path class="st0" d="M4,9h2v2H4V9z"/>
<path class="st0" d="M6,11h2v2H6V11z"/>
<path class="st0" d="M4,13h2v2H4V13z"/>
<path class="st0" d="M2,19h2v2H2V19z"/>
<path class="st0" d="M6,2h2v2H6V2z"/>
</svg>
