<?xml version="1.0" encoding="utf-8"?>
<!-- Generator: Adobe Illustrator 23.0.1, SVG Export Plug-In . SVG Version: 6.00 Build 0)  -->
<svg version="1.1" id="Layer_1" xmlns="http://www.w3.org/2000/svg" xmlns:xlink="http://www.w3.org/1999/xlink" x="0px" y="0px"
	 viewBox="0 0 512 512" style="enable-background:new 0 0 512 512;" xml:space="preserve">
<style type="text/css">
	.st0{fill:#FFFFFF;}
</style>
<path class="st0" d="M410.3,18.3L388.7,40H360c-4.4,0-8,3.6-8,8v28.7L324.7,104H296c-4.4,0-8,3.6-8,8v28.7L260.7,168H232
	c-4.4,0-8,3.6-8,8v28.7L188.7,240h-27.4c4.5-26.8,20.1-50.3,43-64.9l-8.6-13.5c-52.1,33.3-67.4,102.6-34.1,154.7
	c20.6,32.2,56.2,51.7,94.4,51.7h102.8c-28,25.7-64.7,40-102.8,40c-83.8,0-152-68.2-152-152H88c0,13.5,1.6,26.9,4.8,40H32v-80h64
	c3.2,0,6.2-1.9,7.4-4.9l12.9-31.2c1.2-3,0.6-6.4-1.7-8.7l-45.3-45.3l56.6-56.6l45.3,45.3c2.3,2.3,5.7,3,8.7,1.7l31.2-12.9
	c3-1.2,4.9-4.2,4.9-7.4V32h80v48h16V24c0-4.4-3.6-8-8-8h-96c-4.4,0-8,3.6-8,8v66.7l-21.3,8.8l-47.1-47.1c-3.1-3.1-8.2-3.1-11.3,0
	l-67.9,67.9c-3.1,3.1-3.1,8.2,0,11.3l47.1,47.1L90.7,200H24c-4.4,0-8,3.6-8,8v96c0,4.4,3.6,8,8,8h66.7l8.8,21.3l-47.1,47.1
	c-3.1,3.1-3.1,8.2,0,11.3l67.9,67.9c3.1,3.1,8.2,3.1,11.3,0l47.1-47.1l21.3,8.8V488c0,4.4,3.6,8,8,8h96c4.4,0,8-3.6,8-8v-66.7
	l21.3-8.8l47.1,47.1c3.1,3.1,8.2,3.1,11.3,0l67.9-67.9c3.1-3.1,3.1-8.2,0-11.3L447.2,368H488c4.4,0,8-3.6,8-8V88c0-4.4-3.6-8-8-8
	h-64c-4.4,0-8,3.6-8,8v56h-56c-4.4,0-8,3.6-8,8v40h-56c-4.4,0-8,3.6-8,8v48h-56c-4.4,0-8,3.6-8,8v32h-58.5
	c-3.6-10.3-5.5-21.1-5.5-32h32c2.1,0,4.2-0.8,5.7-2.3l37.7-37.7H264c4.4,0,8-3.6,8-8v-28.7l27.3-27.3H328c4.4,0,8-3.6,8-8v-28.7
	L363.3,88H392c4.4,0,8-3.6,8-8V51.3L419.3,32H496V16h-80C413.9,16,411.8,16.8,410.3,18.3L410.3,18.3z M125.9,442.7l-56.6-56.6l43-43
	c14.1,23.1,33.5,42.5,56.6,56.6L125.9,442.7z M216,480v-60.8c26.3,6.4,53.7,6.4,80,0V480L216,480z M442.7,386.1l-56.6,56.6l-43-43
	c14.2-8.6,27.1-19.3,38.1-31.6h43.4L442.7,386.1z M432,96h48v256h-48V96z M368,160h48v192h-48V160z M304,208h48v144h-48V208z
	 M240,264h48v88h-32c-5.4,0-10.7-0.4-16-1.3V264L240,264z M224,304v42.5c-21.5-7.7-39.6-22.7-51.1-42.5H224z M256,200h-16v-16h16
	V200z M320,136h-16v-16h16V136z M384,72h-16V56h16V72z"/>
</svg>
