<?xml version="1.0" encoding="utf-8"?>
<!-- Generator: Adobe Illustrator 23.0.1, SVG Export Plug-In . SVG Version: 6.00 Build 0)  -->
<svg version="1.1" id="Layer_1" xmlns="http://www.w3.org/2000/svg" xmlns:xlink="http://www.w3.org/1999/xlink" x="0px" y="0px"
	 viewBox="0 0 24 24" style="enable-background:new 0 0 24 24;" xml:space="preserve">
<style type="text/css">
	.st0{fill:#FFFFFF;}
</style>
<path class="st0" d="M12.5,24h-7C1.7,24,0,20.7,0,17.5c0-4.6,2.5-9.4,5.8-11.4C5.9,6,6,6,6.1,6h5.8c0.1,0,0.2,0,0.3,0.1
	c0.8,0.5,1.6,1.1,2.2,1.9c0.2,0.2,0.2,0.5,0,0.7c-0.2,0.2-0.5,0.2-0.7,0c-0.6-0.6-1.2-1.2-1.9-1.6H6.2C3.2,8.9,1,13.2,1,17.5
	C1,20,2.2,23,5.5,23h7c3.3,0,4.5-3,4.5-5.5c0-1.4-0.2-2.9-0.7-4.3c-0.1-0.3,0.1-0.5,0.3-0.6c0.3-0.1,0.5,0.1,0.6,0.3
	c0.5,1.5,0.8,3.1,0.8,4.6C18,20.7,16.3,24,12.5,24z"/>
<path class="st0" d="M12.5,7h-7C4.7,7,4,6.3,4,5.5S4.7,4,5.5,4h7C13.3,4,14,4.7,14,5.5S13.3,7,12.5,7z M5.5,5C5.2,5,5,5.2,5,5.5
	S5.2,6,5.5,6h7C12.8,6,13,5.8,13,5.5S12.8,5,12.5,5H5.5z"/>
<path class="st0" d="M11.5,5c-0.1,0-0.3-0.1-0.4-0.2c-0.2-0.2-0.1-0.5,0.1-0.7L14,1.9c0.3-0.2,0.2-0.5,0.2-0.6C14.1,1.3,14,1,13.6,1
	H4.4C4,1,3.9,1.3,3.9,1.3c0,0.1-0.1,0.4,0.2,0.6l2.8,2.2C7,4.3,7.1,4.6,6.9,4.8C6.7,5,6.4,5.1,6.2,4.9L3.4,2.7
	C2.9,2.3,2.7,1.6,2.9,1c0.2-0.6,0.8-1,1.4-1h9.3c0.6,0,1.2,0.4,1.4,1c0.2,0.6,0,1.3-0.5,1.7l-2.8,2.2C11.7,5,11.6,5,11.5,5z"/>
<path class="st0" d="M9.5,18.5H7c-0.3,0-0.5-0.2-0.5-0.5s0.2-0.5,0.5-0.5h2.5c0.6,0,1-0.4,1-1s-0.4-1-1-1h-1c-1.1,0-2-0.9-2-2
	s0.9-2,2-2H11c0.3,0,0.5,0.2,0.5,0.5s-0.2,0.5-0.5,0.5H8.5c-0.6,0-1,0.4-1,1s0.4,1,1,1h1c1.1,0,2,0.9,2,2S10.6,18.5,9.5,18.5z"/>
<path class="st0" d="M9,20c-0.3,0-0.5-0.2-0.5-0.5V18c0-0.3,0.2-0.5,0.5-0.5s0.5,0.2,0.5,0.5v1.5C9.5,19.8,9.3,20,9,20z"/>
<path class="st0" d="M9,12.5c-0.3,0-0.5-0.2-0.5-0.5v-1.5C8.5,10.2,8.7,10,9,10s0.5,0.2,0.5,0.5V12C9.5,12.3,9.3,12.5,9,12.5z"/>
<path class="st0" d="M14.5,12c-0.1,0-0.3,0-0.4-0.1c-0.2-0.2-0.2-0.5,0-0.7l2.5-2.5c0.2-0.2,0.4-0.2,0.6-0.1l1.7,0.8l3.2-3.2
	c0.2-0.2,0.5-0.2,0.7,0s0.2,0.5,0,0.7l-3.5,3.5c-0.2,0.2-0.4,0.2-0.6,0.1l-1.7-0.8l-2.2,2.2C14.8,12,14.6,12,14.5,12z"/>
<path class="st0" d="M22.5,10C22.2,10,22,9.8,22,9.5V7h-2.5C19.2,7,19,6.8,19,6.5S19.2,6,19.5,6h3C22.8,6,23,6.2,23,6.5v3
	C23,9.8,22.8,10,22.5,10z"/>
</svg>
