<?xml version="1.0" encoding="utf-8"?>
<!-- Generator: Adobe Illustrator 23.0.1, SVG Export Plug-In . SVG Version: 6.00 Build 0)  -->
<svg version="1.1" id="Layer_1" xmlns="http://www.w3.org/2000/svg" xmlns:xlink="http://www.w3.org/1999/xlink" x="0px" y="0px"
	 viewBox="0 0 512 512" style="enable-background:new 0 0 512 512;" xml:space="preserve">
<style type="text/css">
	.st0{fill:#FFFFFF;}
</style>
<g>
	<path class="st0" d="M184,312v-88c0-4.4-3.6-8-8-8h-32c-4.4,0-8,3.6-8,8v88h16v-80h16v80H184z"/>
	<path class="st0" d="M312,344V232c0-4.4-3.6-8-8-8h-32c-4.4,0-8,3.6-8,8v112h16V240h16v104H312z"/>
	<path class="st0" d="M248,344V200c0-4.4-3.6-8-8-8h-32c-4.4,0-8,3.6-8,8v128h16V208h16v136H248z"/>
	<path class="st0" d="M376,280v-80c0-4.4-3.6-8-8-8h-32c-4.4,0-8,3.6-8,8v88h16v-80h16v72H376z"/>
	<path class="st0" d="M440,272V152c0-4.4-3.6-8-8-8h-32c-4.4,0-8,3.6-8,8v120h16V160h16v112H440z"/>
	<path class="st0" d="M138.3,197.7c3.1,3.1,8.2,3.1,11.3,0l66-66l66.4,73.7c1.5,1.6,3.5,2.6,5.7,2.6c0.1,0,0.1,0,0.2,0
		c2.1,0,4.2-0.8,5.7-2.3L400,99.3V120c0,4.4,3.6,8,8,8h32c4.4,0,8-3.6,8-8V24c0-4.4-3.6-8-8-8h-96c-4.4,0-8,3.6-8,8v32
		c0,4.4,3.6,8,8,8h20.7l-76.4,76.4l-66.4-73.7c-3-3.3-8-3.6-11.3-0.6c-0.1,0.1-0.2,0.2-0.3,0.3l-96,96c-3.1,3.1-3.1,8.2,0,11.3
		L138.3,197.7z M215.7,83.6l66.4,73.7c3,3.3,8,3.6,11.3,0.6c0.1-0.1,0.2-0.2,0.3-0.3l96-96c3.1-3.1,3.1-8.2,0-11.3
		c-1.5-1.5-3.5-2.3-5.7-2.3h-32V32h80v80h-16V80c0-4.4-3.6-8-8-8c-2.1,0-4.2,0.8-5.7,2.3l-114,114l-66.4-73.7
		c-1.5-1.6-3.5-2.6-5.7-2.6c-0.1,0-0.1,0-0.2,0c-2.1,0-4.2,0.8-5.7,2.3L144,180.7L131.3,168L215.7,83.6z"/>
	<path class="st0" d="M88,488v-16h24c4.4,0,8-3.6,8-8v-21c79.4,72.9,202,70.2,278.2-6l87.4-87.4c12-12,12-31.4,0-43.3
		c-9.9-9.9-25.4-11.8-37.4-4.6c-9.3-14.5-28.6-18.6-43.1-9.3c-3.1,2-5.9,4.6-8.1,7.6l-3.4,4.6c-1.7-1.3-3.6-2.5-5.5-3.5
		c-17-8.5-37.6-1.6-46.1,15.4c-0.2,0.4-0.4,0.8-0.6,1.3l-20.2,44.8c-4.2-1.7-8.7-2.6-13.3-2.5h-96.7l-13.7-13.7
		c-20.6-20.5-52.4-24.8-77.7-10.4V328c0-4.4-3.6-8-8-8H88v-8c0-4.4-3.6-8-8-8H16v16h56v160H16v16h64C84.4,496,88,492.4,88,488
		L88,488z M429.9,305.6c2.7,1.6,4.9,4.1,6.1,7l-63.5,63.5C364,384.7,354.4,392,344,398l65.9-88.4
		C414.5,303.3,423.2,301.6,429.9,305.6L429.9,305.6z M356,324.3c4.2-9.2,15-13.4,24.2-9.2c0.2,0.1,0.5,0.2,0.7,0.3
		c1.1,0.6,2.2,1.2,3.1,2l-45,60.4c-1.3-2.2-2.7-4.2-4.4-6L356,324.3z M186.3,357.7l16,16c1.5,1.5,3.5,2.3,5.7,2.3h100
		c11,0,20,9,20,20s-9,20-20,20H208v16h100c10,0,19.6-4.2,26.4-11.5c18.5-7.6,35.3-18.8,49.5-33l69.8-69.8c5.7-5.7,15-5.7,20.7,0
		c5.7,5.7,5.7,14.9,0,20.6l-87.4,87.4c-72.3,72.3-189.5,72.3-261.8,0l-5.1-5.1v-65.2C139.3,338.6,168.2,339.6,186.3,357.7
		L186.3,357.7z M104,336v120H88V336H104z"/>
</g>
</svg>
